# AST/ASF file generated using VICON BodyLanguage
# -----------------------------------------------
:version 1.10
:name VICON
:units
  mass 1.0
  length 0.45
  angle deg
:documentation
   .ast/.asf automatically generated from VICON data using
   VICON BodyBuilder and BodyLanguage model FoxedUp or BRILLIANT.MOD
:root
   order TX TY TZ RX RY RZ
   axis XYZ
   position 0 0 0  
   orientation 0 0 0 
:bonedata
  begin
     id 1 
     name lhipjoint
     direction 0.653368 -0.678499 0.335782 
     length 2.51848 
     axis 0 0 0  XYZ
  end
  begin
     id 2 
     name lfemur
     direction 0.34202 -0.939693 0  
     length 6.57749  
     axis 0 0 20  XYZ
    dof rx ry rz
    limits (-160.0 20.0)
           (-70.0 70.0)
           (-60.0 70.0)
  end
  begin
     id 3 
     name ltibia
     direction 0.34202 -0.939693 0   
     length 7.94618   
     axis 0 0 20   XYZ
    dof rx
    limits (-10.0 170.0)
  end
  begin
     id 4 
     name lfoot
     direction 0.0811271 -0.222895 0.971461   
     length 2.31339   
     axis -90 7.62852e-016 20   XYZ
    dof rx rz
    limits (-45.0 90.0)
           (-70.0 20.0)
  end
  begin
     id 5 
     name ltoes
     direction 1.53568e-011 -4.21885e-011 1   
     length 1.15935   
     axis -90 7.62852e-016 20   XYZ
    dof rx
    limits (-90.0 20.0)
  end
  begin
     id 6 
     name rhipjoint
     direction -0.640058 -0.688614 0.340788   
     length 2.48149  
     axis 0 0 0  XYZ 
  end
  begin
     id 7 
     name rfemur
     direction -0.34202 -0.939693 0   
     length 6.57875   
     axis 0 0 -20   XYZ
    dof rx ry rz
    limits (-160.0 20.0)
           (-70.0 70.0)
           (-70.0 60.0)
  end
  begin
     id 8 
     name rtibia
     direction -0.34202 -0.939693 0   
     length 7.977   
     axis 0 0 -20   XYZ
    dof rx
    limits (-10.0 170.0)
 end
 begin
     id 9 
     name rfoot
     direction -0.0979793 -0.269196 0.958089   
     length 2.19857  
     axis -90 -7.62852e-016 -20   XYZ
    dof rx rz
    limits (-45.0 90.0)
           (-20.0 70.0)
  end
  begin
     id 10 
     name rtoes
     direction -1.53556e-011 -4.21868e-011 1   
     length 1.09838   
     axis -90 -7.62852e-016 -20   XYZ
    dof rx
    limits (-90.0 20.0)
  end
  begin
     id 11 
     name lowerback
     direction 0.0149039 0.998517 -0.0523597   
     length 2.10809   
     axis 0 0 0   XYZ
    dof rx ry rz
    limits (-20.0 45.0)
           (-30.0 30.0)
           (-30.0 30.0)
  end
  begin
     id 12 
     name upperback
     direction -0.00882659 0.999418 -0.0329624   
     length 2.1102   
     axis 0 0 0   XYZ
    dof rx ry rz
    limits (-20.0 45.0)
           (-30.0 30.0)
           (-30.0 30.0)
  end
  begin
     id 13 
     name thorax
     direction -0.0165585 0.999826 -0.0085833   
     length 2.11039   
     axis 0 0 0   XYZ
    dof rx ry rz
    limits (-20.0 45.0)
           (-30.0 30.0)
           (-30.0 30.0)
  end
  begin
     id 14 
     name lowerneck
     direction -0.0130877 0.999911 0.00260353   
     length 1.73253   
     axis 0 0 0   XYZ
    dof rx ry rz
    limits (-20.0 45.0)
           (-30.0 30.0)
           (-30.0 30.0)
  end
  begin
     id 15 
     name upperneck
     direction -0.0348454 0.928205 -0.370435   
     length 1.66692   
     axis 0 0 0   XYZ
    dof rx ry rz
    limits (-20.0 45.0)
           (-30.0 30.0)
           (-30.0 30.0)
  end
  begin
     id 16
     name head
     direction -0.00807754 0.992494 -0.122026  
     length 1.72765  
     axis 0 0 0   XYZ
    dof rx ry rz
    limits (-20.0 45.0)
           (-30.0 30.0)
           (-30.0 30.0)
  end
  begin
     id 17 
     name lclavicle
     direction 0.987582 0.144023 0.0627671  
     length 3.49235  
     axis 0 0 0   XYZ
    dof ry rz
    limits (-20.0 10.0)
           (0.0 20.0)
  end
  begin
     id 18 
     name lhumerus
     direction 1 -4.48958e-011 -1.45183e-018   
     length 5.41917   
     axis 180 -30 -90   XYZ
    dof rx ry rz
    limits (-60.0 90.0)
           (-90.0 90.0)
           (-90.0 90.0)
  end
  begin
     id 19
     name lradius
     direction 1 -4.48999e-011 5.75106e-027   
     length 2.44373   
     axis 180 -30 -90   XYZ
    dof rx
    limits (-10.0 170.0)
  end
  begin
     id 20
     name lwrist
     direction 1 -4.48987e-011 1.53461e-026   
     length 1.22186   
     axis -1.09697e-014 90 90   XYZ
    dof ry
    limits (-180.0 0.0)
 end
  begin
     id 21 
     name lhand
     direction 1 -4.48881e-011 3.06923e-026   
     length 0.727502   
     axis -1.95843e-014 90 90   XYZ
    dof rx rz
    limits (-90.0 90.0)
           (-45.0 45.0)
  end
  begin
     id 22 
     name lfingers
     direction 1 -4.48907e-011 6.13845e-026   
     length 0.586531   
     axis -3.91686e-014 90 90   XYZ
    dof rx
    limits (0.0 90.0)
  end
  begin
     id 23
     name lthumb
     direction 0.707107 -6.3487e-011 0.707107   
     length 0.842145   
     axis -90 45 2.85299e-015   XYZ
    dof rx rz
    limits (-45.0 45.0)
           (-45.0 45.0)
  end
  begin
     id 24 
     name rclavicle
     direction -0.980998 0.169556 0.0943023   
     length 3.29272  
     axis 0 0 0   XYZ 
    dof ry rz
    limits (-10.0 20.0)
           (-20.0 0.0)
  end
  begin
     id 25 
     name rhumerus
     direction -1 -1.83355e-005 2.45537e-005  
     length 5.58976   
     axis 180 30 90   XYZ
    dof rx ry rz
    limits (-90.0 60.0)
           (-90.0 90.0)
           (-90.0 90.0)
  end
  begin
     id 26 
     name rradius
     direction -1 -4.48967e-011 5.97228e-027   
     length 2.4806   
     axis 180 30 90   XYZ
    dof rx
    limits (-10.0 170.0)
  end
  begin
     id 27 
     name rwrist
     direction -1 -4.48963e-011 1.53461e-026   
     length 1.2403   
     axis -1.09697e-014 -90 -90   XYZ
    dof ry
    limits (-180.0 0.0)
  end
  begin
     id 28
     name rhand
     direction -1 -4.48881e-011 3.06923e-026   
     length 0.816009   
     axis -1.95843e-014 -90 -90   XYZ
    dof rx rz
    limits (-90.0 90.0)
           (-45.0 45.0)
  end
  begin
     id 29
     name rfingers
     direction -1 -4.49018e-011 6.13845e-026   
     length 0.657887   
     axis -3.91686e-014 -90 -90   XYZ
    dof rx
    limits (0.0 90.0)
  end
  begin
     id 30
     name rthumb
     direction -0.707107 -6.34872e-011 0.707107   
     length 0.944599   
     axis -90 -45 -2.85299e-015   XYZ
    dof rx rz
    limits (-45.0 45.0)
           (-45.0 45.0)
  end
:hierarchy
  begin
    root lhipjoint rhipjoint lowerback
    lhipjoint lfemur
    lfemur ltibia
    ltibia lfoot
    lfoot ltoes
    rhipjoint rfemur
    rfemur rtibia
    rtibia rfoot
    rfoot rtoes
    lowerback upperback
    upperback thorax
    thorax lowerneck lclavicle rclavicle
    lowerneck upperneck
    upperneck head
    lclavicle lhumerus
    lhumerus lradius
    lradius lwrist
    lwrist lhand lthumb
    lhand lfingers
    rclavicle rhumerus
    rhumerus rradius
    rradius rwrist
    rwrist rhand rthumb
    rhand rfingers
  end

#!OML:ASF F:\VICON\USERDATA\INSTALL\rory3\rory3.ASF
:FULLY-SPECIFIED
:DEGREES
115
root -0.149177 16.3515 -4.95405 -158.42 -7.69816 177.238
lowerback -11.4548 -0.943618 3.26333
upperback -4.02061 -2.1761 2.9534
thorax 2.22362 -1.28609 0.937186
lowerneck -11.0003 3.41974 -0.724007
upperneck 42.3066 0.25026 -3.07674
head 17.3922 -2.40946 -1.85733
rclavicle 1.41137e-014 2.22639e-014
rhumerus -48.237 16.4978 -90.2327
rradius 18.4279
rwrist -9.91521
rhand 26.2375 1.5258
rfingers 7.12502
rthumb 50.2948 -19.5407
lclavicle 1.41137e-014 2.22639e-014
lhumerus -55.1386 -13.3946 99.5736
lradius 22.8947
lwrist 13.1163
lhand 27.3276 21.8417
lfingers 7.12502
lthumb 51.2891 42.3603
rfemur -47.7976 8.58135 26.5619
rtibia 44.609
rfoot -54.2079 -32.4037
rtoes 48.7267
lfemur -25.7813 18.6843 -29.622
ltibia 54.5792
lfoot 33.259 20.509
ltoes 25.505
116
root -0.140204 16.3501 -4.93162 -158.518 -7.72954 177.07
lowerback -11.3067 -1.01981 3.08445
upperback -3.93454 -2.23622 2.95052
thorax 2.23822 -1.30745 1.02919
lowerneck -11.0888 3.42005 -0.788745
upperneck 42.3216 0.273399 -3.0638
head 17.4239 -2.40586 -1.8372
rclavicle 1.37161e-014 7.79236e-014
rhumerus -48.3442 16.8344 -90.354
rradius 18.8028
rwrist -10.4382
rhand 25.9815 2.42277
rfingers 7.12502
rthumb 50.0608 -18.768
lclavicle 1.37161e-014 7.79236e-014
lhumerus -54.9714 -13.4295 99.7333
lradius 22.9374
lwrist 13.5242
lhand 27.5049 22.3999
lfingers 7.12502
lthumb 51.4504 42.8264
rfemur -47.776 8.32513 26.4895
rtibia 44.6375
rfoot -53.9651 -32.4598
rtoes 48.0987
lfemur -25.4232 18.4909 -29.7675
ltibia 54.3146
lfoot 31.8905 22.4
ltoes 30.1011
117
root -0.126252 16.3468 -4.91084 -158.593 -7.6403 177.053
lowerback -11.321 -1.00478 2.9659
upperback -3.7166 -2.18641 2.9226
thorax 2.4759 -1.26778 1.06903
lowerneck -11.4906 3.35789 -0.707162
upperneck 42.3293 0.245324 -3.09387
head 17.5347 -2.38457 -1.87151
rclavicle 1.47101e-014 3.97569e-014
rhumerus -48.2642 17.2501 -90.7034
rradius 19.1471
rwrist -11.2128
rhand 25.8761 2.35894
rfingers 7.12502
rthumb 49.9643 -18.8825
lclavicle 1.47101e-014 3.97569e-014
lhumerus -54.5567 -13.6274 99.7031
lradius 22.8758
lwrist 13.7353
lhand 27.5412 22.4176
lfingers 7.12502
lthumb 51.4834 42.8251
rfemur -47.8023 8.40853 26.4785
rtibia 44.6405
rfoot -53.8133 -32.8164
rtoes 47.8294
lfemur -25.1831 18.4743 -29.817
ltibia 54.0848
lfoot 30.3981 23.6326
ltoes 32.8859
118
root -0.113315 16.3458 -4.89751 -158.535 -7.60594 177.036
lowerback -11.3881 -1.04067 2.87333
upperback -3.71957 -2.22632 2.90997
thorax 2.51237 -1.28707 1.10079
lowerneck -11.6629 3.37745 -0.59422
upperneck 42.3583 0.281026 -3.13527
head 17.5995 -2.3533 -1.90864
rclavicle -1.25234e-014 -7.95139e-015
rhumerus -48.2782 17.2535 -90.7235
rradius 19.2854
rwrist -11.2218
rhand 26.3787 1.47308
rfingers 7.12502
rthumb 50.4239 -19.5242
lclavicle -1.25234e-014 -7.95139e-015
lhumerus -54.4752 -13.4084 99.4937
lradius 22.8144
lwrist 13.4584
lhand 27.6122 21.9884
lfingers 7.12502
lthumb 51.5479 42.3588
rfemur -47.886 8.26546 26.54
rtibia 44.5987
rfoot -53.7592 -32.5099
rtoes 48.0284
lfemur -25.1689 18.5677 -29.9571
ltibia 53.9001
lfoot 30.4427 22.5198
ltoes 31.1097
119
root -0.103998 16.3507 -4.87715 -158.498 -7.71793 176.826
lowerback -11.2742 -1.17248 2.65558
upperback -3.82056 -2.36952 2.89503
thorax 2.35278 -1.36098 1.1936
lowerneck -11.4777 3.41822 -0.624281
upperneck 42.3115 0.322886 -3.12299
head 17.5236 -2.34733 -1.88673
rclavicle 1.64991e-014 1.59028e-014
rhumerus -48.2484 17.0765 -90.5061
rradius 19.0569
rwrist -10.8377
rhand 25.994 2.192
rfingers 7.12502
rthumb 50.0721 -18.9928
lclavicle 1.64991e-014 1.59028e-014
lhumerus -54.6079 -13.0173 99.3003
lradius 22.7966
lwrist 13.1622
lhand 27.5326 21.638
lfingers 7.12502
lthumb 51.4756 42.0501
rfemur -47.9246 7.75721 26.5151
rtibia 44.5009
rfoot -53.0968 -32.6087
rtoes 47.7378
lfemur -25.1325 18.5587 -30.264
ltibia 53.7853
lfoot 30.757 21.6053
ltoes 29.0377
